# xmcd
#
# Track frame offsets: 
#        150
#        19451
#        41364
#        65734
#        81720
#        94598
#        111279
#        125193
#        156194
#        180351
#        208783
#        227117
#        240950
#        260023
#
# Disc length: 3741 seconds
#
# Revision: 1
# Processed by: cddbd v1.5.2PL0 Copyright (c) Steve Scherf et al.
# Submitted via: ExactAudioCopy v0.95b4
#
DISCID=c60e9b0e
DTITLE=Eric Sardinas - Treat Me Right
DYEAR=1900
DGENRE=
TTITLE0=Treat Me Right
TTITLE1=Write Me A Few Lines
TTITLE2=Murdering Blues
TTITLE3=Cherry Bomb
TTITLE4=My Baby's Got Something
TTITLE5=Give Me Love
TTITLE6=Rollin' And Tumblin'
TTITLE7=Low Down Love
TTITLE8=Get Along Rider
TTITLE9=Goin' To The River
TTITLE10=I Can't Be Satisfied
TTITLE11=Sweetwater Blues
TTITLE12=Down In The Bottom
TTITLE13=Tired Of Tryin'
EXTD=Heinz
EXTT0=
EXTT1=
EXTT2=
EXTT3=
EXTT4=
EXTT5=
EXTT6=
EXTT7=
EXTT8=
EXTT9=
EXTT10=
EXTT11=
EXTT12=
EXTT13=
PLAYORDER=
